<?xml version="1.0" encoding="utf-8"?>
<!-- Svg Vector Icons : http://www.onlinewebfonts.com/icon -->
<!DOCTYPE svg PUBLIC "-//W3C//DTD SVG 1.1//EN" "http://www.w3.org/Graphics/SVG/1.1/DTD/svg11.dtd">
<svg version="1.1" xmlns="http://www.w3.org/2000/svg" xmlns:xlink="http://www.w3.org/1999/xlink" x="0px" y="0px" viewBox="0 0 1000 1000" enable-background="new 0 0 1000 1000" xml:space="preserve">
<metadata> Svg Vector Icons : http://www.onlinewebfonts.com/icon </metadata>
<g><path d="M928.8,94.3H55.9C25.8,94.3,10,125,10,155.5v704.4c0,29.6,16.3,45.9,45.9,45.9h872.8c30.4,0,61.2-15.8,61.2-45.9V155.5C989.9,125.7,958.6,94.3,928.8,94.3z M959.4,859.9c0,10.5-17.9,15.3-30.6,15.3H55.9c-12.8,0-15.3-2.5-15.3-15.3V294.6c1,0.2,2-1.3,3.1-1.3h915.7V859.9z M959.4,262.6H43.7c-1,0-2.1,2.3-3.1,2.5V155.5c0-12.7,4.8-30.6,15.3-30.6h872.8c12.8,0,30.6,17.8,30.6,30.6V262.6z M126,657.1c2.1,1.5,4.6,3.6,7.5,3.6h136.9v76.7h30.6v-76.7H344c2.8,0,2.2-2.3,3.5-3.9c1.5-1.7-0.7-5.1-0.7-7.5v-19.2h-46v-199h-31.6L118.1,630.6l3.9,19.1C122.5,652.1,123.8,655.3,126,657.1z M272.8,474.8c-0.7,4.6-1.4,7.7-1.7,12.1c-0.2,4.3-0.8,8.3-0.8,12.2v131H160L272.8,474.8z M389.4,704.1c10.1,13,22,22.7,35.7,29.2c13.7,6.4,28.5,9.5,44.4,9.5c15.7,0,30.5-3.2,44.4-9.5c13.7-6.4,25.8-16.1,35.8-29.2c10.2-12.9,18.1-29.5,24-49.4s8.8-43.4,8.8-70.6c0-27.2-2.9-50.8-8.8-70.8c-5.9-20-13.8-36.5-23.9-49.5c-10.1-13.2-22.1-22.9-35.8-29.2c-13.9-6.3-28.7-9.6-44.4-9.6c-15.9,0-30.7,3.2-44.4,9.6c-13.7,6.4-25.6,16.1-35.7,29.2c-10.2,13.1-18.1,29.6-23.9,49.5c-5.9,20-8.7,43.5-8.7,70.8c0,27.2,2.8,50.8,8.7,70.6C371.2,674.6,379.2,691.2,389.4,704.1z M402.7,524.3c4-16.1,9.3-29.1,16-39c6.7-9.8,14.4-16.9,23.2-21.2c8.9-4.2,18-6.4,27.6-6.4c9.5,0,18.7,2.2,27.5,6.4c8.9,4.3,16.6,11.4,23.4,21.2c6.7,9.8,12,22.9,16,39c4,16.1,6,36,6,59.8c0,23.7-2,43.6-6,59.6c-4,16.1-9.4,29.1-16,39c-6.7,9.8-14.5,16.8-23.4,21.2c-8.8,4.2-17.9,6.4-27.5,6.4c-9.6,0-18.7-2.1-27.6-6.4c-8.8-4.3-16.6-11.4-23.2-21.2c-6.7-9.9-12-22.8-16-39c-4-16-6-36-6-59.6C396.7,560.4,398.6,540.5,402.7,524.3z M594.7,657.1c2.1,1.5,4.6,3.6,7.5,3.6H745v76.7h30.6v-76.7h37.2c2.9,0,5.2-2.3,6.5-3.9c1.4-1.7,2.2-5.1,2.2-7.5v-19.2h-45.9v-199h-37.4L586.8,630.6l3.9,19.1C591.3,652.1,592.7,655.3,594.7,657.1z M743,474.8c-0.7,4.6,0.1,7.7-0.2,12.1c-0.2,4.3,2.1,8.4,2.1,12.2v131H628.7L743,474.8z M105.4,177c-11.4,0-20.6,9.2-20.6,20.6c0,11.4,9.2,20.6,20.6,20.6c11.4,0,20.6-9.2,20.6-20.6S116.8,177,105.4,177z M187.7,177c-11.4,0-20.6,9.2-20.6,20.6c0,11.4,9.2,20.6,20.6,20.6s20.6-9.2,20.6-20.6S199.1,177,187.7,177z M270,177c-11.4,0-20.6,9.2-20.6,20.6c0,11.4,9.2,20.6,20.6,20.6c11.4,0,20.6-9.2,20.6-20.6S281.3,177,270,177z"/></g>
</svg>