<?xml version="1.0" encoding="utf-8"?>
<!-- Svg Vector Icons : http://www.onlinewebfonts.com/icon -->
<!DOCTYPE svg PUBLIC "-//W3C//DTD SVG 1.1//EN" "http://www.w3.org/Graphics/SVG/1.1/DTD/svg11.dtd">
<svg version="1.1" xmlns="http://www.w3.org/2000/svg" xmlns:xlink="http://www.w3.org/1999/xlink" x="0px" y="0px" viewBox="0 0 1000 1000" enable-background="new 0 0 1000 1000" xml:space="preserve">
<metadata> Svg Vector Icons : http://www.onlinewebfonts.com/icon </metadata>
<g><path d="M500,10C229.4,10,10,229.4,10,500c0,270.6,219.4,490,490,490c270.6,0,490-219.4,490-490C990,229.4,770.6,10,500,10z M540.7,331.9c-34,0-58.9-20.6-58.9-56.6c0-36,29.7-76.7,78.9-76.7c17.2,0,59.9,11.1,59.9,58.4C620.6,304.3,574.8,331.9,540.7,331.9z M610.1,704.2c-50.5,45-109.7,77.4-144.1,86.1c-36.9,9.3-66.4,6.3-69.3-36.1c-2.9-42.4,46.5-223.8,49.7-242.9c2.7-16.2-32.8,0.6-62.2,16.2c-8.5,4.5-19.2,0.7-23.4-8c-3.4-7.3-1.3-16,5.1-20.8c50.8-38.1,114.1-74.1,167.8-88.4c30.8-8.2,48.6,1.8,49.7,39.5c1,37.7-49.8,210.1-53.8,233.3c-5.8,34.1,32.8,12.8,60.8-4.9c7.2-4.6,16.7-2.8,21.8,4.1C617.1,689.1,616.3,698.7,610.1,704.2L610.1,704.2z"/></g>
</svg>