<?xml version="1.0" encoding="utf-8"?>
<!-- Svg Vector Icons : http://www.onlinewebfonts.com/icon -->
<!DOCTYPE svg PUBLIC "-//W3C//DTD SVG 1.1//EN" "http://www.w3.org/Graphics/SVG/1.1/DTD/svg11.dtd">
<svg version="1.1" xmlns="http://www.w3.org/2000/svg" xmlns:xlink="http://www.w3.org/1999/xlink" x="0px" y="0px" viewBox="0 0 1000 1000" enable-background="new 0 0 1000 1000" xml:space="preserve">
<metadata> Svg Vector Icons : http://www.onlinewebfonts.com/icon </metadata>
<g><g transform="translate(0.000000,511.000000) scale(0.100000,-0.100000)"><path d="M3500.3,3923.5C1942,3749,625.2,2616.2,224.6,1105.8C123,726.3,100,542.3,100,111c0-431.3,23-615.3,124.6-994.8c406.3-1531.5,1723.2-2649,3323.7-2821.5c258.8-26.8,757.1-11.5,996.7,30.7c235.8,42.2,540.5,122.7,626.8,164.8c86.3,44.1,136.1,132.3,136.1,241.5c0,199.3-189.7,302.8-410.2,226.2c-316.3-113.1-946.9-172.5-1320.6-126.5c-624.9,76.7-1153.9,287.5-1627.3,644c-1613.9,1221-1774.9,3547.9-343.1,4972.1c657.4,655.5,1520,991,2449.6,954.6c1192.2-47.9,2248.3-720.7,2800.4-1782.6c138-268.3,182.1-306.7,339.3-295.2c113.1,7.7,182.1,57.5,226.2,161c40.2,93.9,32.6,138-47.9,304.8c-634.4,1313-2008.8,2165.9-3467.4,2152.5C3762.9,3940.7,3578.9,3933.1,3500.3,3923.5z"/><path d="M3774.4,2468.6c-95.8-57.5-120.8-126.5-120.8-325.8v-172.5H3600c-84.3,0-299-69-423.6-134.2c-149.5-80.5-295.2-235.8-369.9-394.9c-47.9-105.4-61.3-157.2-69-304.8c-15.3-302.8,67.1-523.3,264.5-707.3c147.6-136.1,346.9-233.9,757.1-375.7c433.2-149.5,557.8-207,659.4-297.1c111.2-101.6,141.8-168.7,143.8-308.6c0-308.6-256.8-467.7-715-442.8c-293.3,15.4-496.4,107.4-762.9,348.9c-67.1,59.4-147.6,115-182.1,124.6c-90.1,26.8-193.6-7.7-262.6-86.3c-49.8-57.5-59.4-84.3-59.4-170.6c0-90.1,9.6-116.9,76.7-205.1c168.7-228.1,488.8-423.6,818.5-502.2l174.4-40.2l7.7-189.8l5.7-189.8l70.9-65.2c80.5-72.8,168.7-86.3,262.6-38.3c95.8,49.8,116.9,105.4,116.9,306.7v180.2l92,13.4c626.8,90.1,971.8,467.7,937.3,1025.5c-13.4,207-51.7,331.6-149.5,477.3c-153.3,230-375.7,362.3-946.9,557.8c-504.1,174.4-636.4,247.3-701.5,391c-44.1,99.7-46,172.5,0,270.3c72.8,159.1,226.2,239.6,481.1,253c283.7,15.3,521.4-63.3,757.1-251.1c72.8-57.5,153.3-109.3,182.1-115c84.3-15.3,184,23,247.3,95.8c47.9,53.7,59.4,82.4,59.4,159.1c0,235.8-316.3,479.2-759.1,582.7l-189.8,44.1l-9.6,191.7c-11.5,210.8-30.7,258.8-126.5,304.8C3904.8,2516.6,3847.3,2514.6,3774.4,2468.6z"/><path d="M7238,734c-425.5-78.6-853-304.8-1169.2-622.9c-644-646-835.7-1581.3-498.3-2428.5c122.7-308.6,287.5-544.3,561.6-803.1c674.7-636.4,1682.9-784,2514.8-368C9488.3-3067,9988.6-2164.2,9887-1251.8C9775.8-249.3,9043.6,546.1,8062.2,732.1C7868.6,770.4,7439.3,770.4,7238,734z M8037.3,187.7c333.5-78.6,603.8-235.8,843.4-484.9c385.3-402.5,548.2-923.9,456.2-1456.7c-151.4-864.5-897.1-1468.3-1763.4-1426.1c-636.4,30.7-1178.8,387.2-1456.7,958.4c-118.9,245.4-168.7,465.8-168.7,741.8c0,484.9,157.2,860.6,504.1,1207.6c245.3,245.3,523.3,400.6,833.8,467.7C7487.2,237.5,7845.6,233.7,8037.3,187.7z"/><path d="M7462.3-494.7c-281.7-67.1-483-266.4-559.7-553.9c-30.7-109.3-40.3-124.6-78.6-124.6c-24.9,0-63.3-17.2-84.3-38.3c-72.9-72.8-36.4-176.3,69-203.2c63.3-15.3,67.1-113.1,3.8-134.2c-65.1-19.2-111.2-65.2-111.2-111.2c0-67.1,53.7-126.5,113.1-126.5c47.9,0,55.5-11.5,93.9-132.2c109.3-335.4,345-513.7,732.2-548.2c323.9-30.7,705.3,118.8,812.7,318.2c32.6,59.4,34.5,76.7,13.4,128.4c-26.8,65.2-113.1,109.3-174.4,90.1c-21.1-7.7-78.6-46-126.5-88.2c-134.2-115-191.7-138-371.9-147.6c-180.2-9.6-287.5,13.4-385.3,78.6c-63.3,42.2-155.3,174.4-180.2,258.8c-11.5,42.2-9.6,42.2,185.9,42.2c214.7,0,254.9,13.4,274.1,97.8c7.7,32.6,0,63.2-24.9,95.8c-36.4,44.1-51.7,46-260.7,51.7l-222.3,7.7v55.6v55.6h210.8c199.3,0,214.7,1.9,258.8,47.9c53.7,51.8,57.5,70.9,26.8,130.3c-34.5,65.2-51.8,70.9-260.7,70.9c-145.7,0-197.4,5.8-197.4,24.9c1.9,53.7,109.2,233.8,172.5,283.7c90.1,72.8,283.7,120.8,419.8,105.4c139.9-17.3,243.4-65.2,343.1-161c46-44.1,103.5-86.3,128.4-92c92-23,195.5,82.4,172.5,180.2c-15.3,76.7-168.7,224.3-287.5,279.9C7977.9-462.1,7690.4-439.1,7462.3-494.7z"/></g></g>
</svg>