<?xml version="1.0" standalone="no"?>
   <!DOCTYPE svg PUBLIC "-//W3C//DTD SVG 1.1//EN" 
   "http://www.w3.org/Graphics/SVG/1.1/DTD/svg11.dtd"><svg id="svg" version="1.1" width="702" height="687" xmlns="http://www.w3.org/2000/svg"><path d="M244.736 63.310 C 197.800 79.451,169.501 117.680,171.330 162.476 L 172.090 181.108 155.169 184.486 C 120.459 191.417,96.000 220.571,96.000 255.013 C 96.000 264.698,94.740 266.794,86.986 270.006 C 73.752 275.488,60.927 291.637,58.527 305.841 C 56.875 315.617,57.898 321.067,63.472 332.178 C 72.319 349.814,82.935 357.586,101.173 359.778 C 109.053 360.725,186.375 360.587,273.000 359.471 C 359.625 358.355,471.000 356.933,520.500 356.311 C 618.438 355.081,622.116 354.470,635.735 337.155 C 642.479 328.582,644.299 306.438,639.334 293.377 C 635.211 282.534,619.021 268.297,605.882 263.961 C 595.523 260.542,594.000 258.877,594.000 250.967 C 594.000 238.614,583.226 217.279,573.493 210.360 C 558.774 199.895,543.110 196.951,528.661 201.933 C 515.921 206.325,515.791 206.298,511.679 198.430 C 501.118 178.218,477.955 165.000,453.096 165.000 L 438.000 165.000 438.000 152.533 C 438.000 128.278,416.381 110.228,386.826 109.810 C 370.540 109.579,369.968 109.277,362.199 96.799 C 341.571 63.666,288.062 48.410,244.736 63.310 M306.846 73.042 C 313.087 75.215,319.769 78.569,321.696 80.496 C 323.623 82.423,326.900 84.000,328.979 84.000 C 332.461 84.000,357.000 106.012,357.000 109.136 C 357.000 114.371,352.564 120.003,348.429 120.018 C 344.512 120.033,343.326 123.671,342.653 137.739 C 341.924 152.999,342.837 156.618,349.275 163.970 L 356.742 172.500 354.973 156.917 C 353.329 142.439,353.854 140.685,362.371 132.167 C 369.802 124.737,374.026 123.000,384.669 123.000 C 399.835 123.000,421.547 135.224,424.249 145.284 C 428.910 162.642,421.790 175.710,412.067 167.641 C 407.701 164.017,407.367 164.279,409.157 169.918 C 410.604 174.478,409.677 176.866,405.897 178.316 C 402.991 179.431,400.139 178.916,399.557 177.172 C 398.976 175.427,397.305 174.000,395.844 174.000 C 394.383 174.000,393.965 176.025,394.915 178.500 C 395.992 181.306,394.893 183.000,391.998 183.000 C 389.444 183.000,386.430 184.495,385.301 186.321 C 383.911 188.571,385.369 188.970,389.822 187.557 C 396.246 185.518,396.272 185.614,390.971 191.805 C 387.987 195.289,385.086 196.759,384.523 195.070 C 383.170 191.010,375.000 191.102,375.000 195.177 C 375.000 196.924,376.209 197.607,377.686 196.694 C 379.163 195.781,381.172 197.122,382.151 199.673 C 383.130 202.224,382.800 203.613,381.418 202.758 C 380.035 201.904,377.013 204.755,374.702 209.093 C 371.534 215.040,371.386 217.279,374.100 218.191 C 376.662 219.051,376.878 221.559,374.850 226.895 C 370.798 237.553,371.303 239.002,376.745 232.323 C 380.839 227.298,381.262 227.224,379.826 231.785 C 378.040 237.454,386.668 255.389,392.042 257.181 C 394.198 257.899,394.782 253.735,393.777 244.820 C 390.614 216.754,399.869 199.189,425.254 185.078 C 444.926 174.143,477.111 179.676,492.904 196.708 C 499.404 203.718,499.972 205.604,496.390 208.291 C 493.492 210.464,493.009 212.924,494.893 215.913 C 496.422 218.340,498.721 219.279,500.000 218.000 C 501.279 216.721,500.340 214.418,497.913 212.883 C 494.212 210.542,494.347 210.084,498.750 210.046 C 504.806 209.993,505.390 213.797,500.678 222.603 C 497.969 227.664,496.808 228.043,494.395 224.655 C 492.023 221.327,491.741 221.469,492.976 225.366 C 493.824 228.043,495.454 236.481,496.599 244.116 C 498.344 255.752,497.897 258.000,493.841 258.000 C 491.178 258.000,489.000 259.308,489.000 260.906 C 489.000 262.504,491.182 262.974,493.849 261.951 C 498.024 260.349,498.199 261.023,495.106 266.802 C 493.130 270.494,492.298 274.298,493.257 275.257 C 494.216 276.216,495.000 275.281,495.000 273.179 C 495.000 270.898,496.948 270.106,499.834 271.213 C 503.168 272.493,504.169 271.767,503.058 268.874 C 501.948 265.980,503.135 265.120,506.885 266.101 C 511.723 267.366,512.146 265.958,510.720 253.313 C 505.452 206.570,561.669 197.144,576.702 242.250 C 580.492 253.619,581.123 259.916,579.027 265.430 C 576.640 271.709,577.031 273.003,581.324 273.017 C 604.400 273.091,630.038 292.570,629.954 309.964 C 629.929 315.209,628.624 321.525,627.054 324.000 C 623.754 329.203,614.519 330.142,611.296 325.604 C 610.012 323.795,609.073 324.691,609.046 327.750 C 609.012 331.595,606.391 333.088,599.250 333.329 C 593.888 333.510,585.131 334.026,579.791 334.476 C 574.451 334.926,570.819 334.103,571.718 332.647 C 572.618 331.191,572.004 330.000,570.354 330.000 C 568.704 330.000,566.465 331.438,565.379 333.195 C 564.086 335.287,561.435 334.608,557.702 331.230 C 551.372 325.502,550.388 327.383,555.106 336.197 C 559.253 343.946,555.551 343.535,546.571 335.250 L 539.255 328.500 541.330 335.250 C 543.764 343.171,539.543 344.115,532.626 337.197 C 529.252 333.824,525.393 333.033,519.661 334.541 C 512.136 336.520,511.968 336.878,517.500 339.133 C 523.200 341.456,523.162 341.589,516.750 341.789 C 513.038 341.905,509.893 340.313,509.763 338.250 C 509.574 335.250,509.224 335.250,508.013 338.250 C 505.675 344.045,500.974 342.680,502.845 336.750 C 504.030 332.997,502.698 333.546,498.176 338.675 C 494.697 342.621,490.871 344.799,489.675 343.514 C 488.479 342.230,489.188 340.576,491.250 339.839 C 493.313 339.103,494.957 335.575,494.905 332.000 C 494.816 325.958,494.529 325.870,490.824 330.750 C 485.999 337.105,481.716 337.674,484.026 331.653 C 485.162 328.692,484.253 327.859,481.175 329.040 C 478.689 329.994,477.349 332.582,478.197 334.791 C 479.044 337.000,478.544 339.546,477.085 340.447 C 475.626 341.349,473.546 339.296,472.464 335.886 C 470.950 331.115,469.571 330.451,466.490 333.008 C 463.462 335.521,461.789 335.091,459.637 331.245 C 457.935 328.203,455.296 327.081,453.075 328.454 C 450.163 330.254,450.221 331.282,453.343 333.212 C 455.534 334.566,456.417 336.583,455.306 337.694 C 454.195 338.805,451.261 337.689,448.786 335.214 C 446.311 332.739,445.121 329.879,446.143 328.857 C 449.489 325.511,441.062 326.913,434.764 330.750 C 429.460 333.982,427.844 333.567,423.074 327.750 C 416.234 319.410,414.085 319.178,416.131 327.000 C 417.008 330.355,416.223 333.000,414.350 333.000 C 412.507 333.000,411.000 330.300,411.000 327.000 C 411.000 323.700,409.506 321.000,407.679 321.000 C 405.853 321.000,405.162 323.095,406.145 325.656 C 407.248 328.531,406.697 329.549,404.704 328.317 C 402.929 327.220,402.072 324.048,402.799 321.267 C 403.680 317.900,402.188 316.065,398.334 315.775 C 393.484 315.409,393.160 316.077,396.330 319.898 C 399.403 323.600,399.304 324.970,395.807 327.183 C 388.066 332.081,380.261 329.465,377.355 321.000 C 375.302 315.016,380.139 305.993,384.796 307.120 C 386.833 307.613,387.488 307.450,386.250 306.758 C 385.013 306.066,384.000 302.913,384.000 299.750 C 384.000 292.000,380.097 292.480,376.461 300.676 C 372.865 308.785,355.314 321.000,347.260 321.000 C 337.317 321.000,322.003 312.088,318.416 304.214 C 313.567 293.572,314.187 275.496,319.670 267.668 C 323.903 261.625,323.898 261.000,319.626 261.000 C 313.376 261.000,303.025 278.348,303.011 288.846 C 302.995 300.940,309.891 315.211,320.631 325.311 C 325.784 330.157,330.000 336.570,330.000 339.561 C 330.000 344.209,327.381 345.000,312.000 345.000 C 296.990 345.000,293.942 344.128,293.652 339.750 C 293.321 334.750,293.239 334.750,291.932 339.750 C 290.281 346.067,285.000 346.773,285.000 340.677 C 285.000 338.299,283.665 335.529,282.034 334.521 C 280.403 333.513,279.744 334.449,280.570 336.600 C 282.762 342.314,272.705 347.266,264.000 344.758 C 259.200 343.376,258.390 342.490,261.750 342.299 C 264.638 342.135,267.000 340.650,267.000 339.000 C 267.000 335.878,263.186 334.934,254.250 335.843 C 250.689 336.205,249.000 334.268,249.000 329.821 C 249.000 324.029,249.611 323.739,254.250 327.331 C 259.250 331.203,259.250 331.102,254.250 325.212 C 251.363 321.811,249.000 316.771,249.000 314.014 C 249.000 311.256,247.650 309.000,246.000 309.000 C 244.350 309.000,243.000 312.328,243.000 316.394 C 243.000 324.604,234.135 331.015,226.717 328.168 C 224.123 327.173,222.000 325.477,222.000 324.401 C 222.000 323.324,219.510 320.888,216.467 318.988 C 211.547 315.915,211.053 316.418,212.008 323.516 C 212.877 329.968,212.600 330.391,210.566 325.719 C 208.319 320.559,207.843 320.475,206.130 324.939 C 204.740 328.563,206.246 330.449,211.606 331.795 C 221.960 334.393,220.892 339.228,210.426 337.135 C 203.534 335.757,201.539 336.614,200.261 341.503 C 198.741 347.315,196.368 347.586,146.807 347.615 C 115.117 347.634,92.572 346.377,88.846 344.383 C 77.451 338.284,72.203 329.011,72.100 314.790 C 72.019 303.717,73.730 299.142,81.000 291.000 C 85.950 285.456,90.000 282.512,90.000 284.460 C 90.000 286.407,93.084 288.000,96.853 288.000 C 101.274 288.000,105.578 291.168,108.979 296.926 C 111.879 301.835,114.195 306.560,114.126 307.426 C 114.057 308.292,114.533 308.663,115.185 308.250 C 115.837 307.838,118.874 309.640,121.935 312.256 C 131.036 320.032,155.262 330.000,165.064 330.000 C 170.085 330.000,178.874 328.044,184.596 325.653 C 196.700 320.596,198.844 313.921,187.446 316.782 C 183.291 317.825,172.464 317.750,163.386 316.616 C 142.788 314.042,124.366 300.967,114.554 281.957 C 101.611 256.883,110.324 222.608,133.767 206.376 C 147.714 196.719,164.261 191.730,160.507 198.312 C 158.577 201.698,158.893 201.782,162.160 198.750 C 166.922 194.330,180.000 193.711,180.000 197.906 C 180.000 199.504,177.975 200.035,175.500 199.085 C 173.021 198.134,171.000 198.996,171.000 201.004 C 171.000 203.395,173.581 204.003,178.500 202.768 C 182.825 201.683,186.000 202.180,186.000 203.943 C 186.000 205.624,182.963 207.021,179.250 207.046 C 173.777 207.083,173.351 207.647,177.000 210.029 C 180.322 212.197,182.950 211.219,187.040 206.292 C 191.893 200.446,192.451 200.317,191.540 205.248 C 190.968 208.344,192.230 211.482,194.344 212.220 C 196.458 212.958,197.808 211.917,197.344 209.906 C 196.880 207.895,198.403 205.560,200.728 204.716 C 203.659 203.652,204.378 204.688,203.072 208.091 C 202.036 210.791,202.496 213.000,204.094 213.000 C 205.692 213.000,207.000 214.507,207.000 216.350 C 207.000 219.729,198.522 218.869,187.841 214.408 C 183.654 212.659,182.550 213.144,183.599 216.272 C 184.379 218.597,187.168 220.517,189.797 220.538 C 192.426 220.559,195.572 221.572,196.788 222.788 C 198.005 224.005,202.004 225.000,205.675 225.000 C 210.462 225.000,212.926 222.667,214.389 216.750 C 215.510 212.213,219.959 204.788,224.275 200.250 C 230.488 193.718,234.839 192.000,245.167 192.000 C 269.307 192.000,281.423 207.269,277.868 233.208 C 276.369 244.147,276.741 246.459,279.548 243.652 C 284.668 238.532,293.966 213.000,290.710 213.000 C 289.220 213.000,288.000 210.482,288.000 207.405 C 288.000 204.327,285.344 198.433,282.098 194.306 C 278.852 190.180,277.165 185.763,278.348 184.491 C 279.532 183.219,278.475 182.853,276.000 183.678 C 273.525 184.502,267.671 183.242,262.991 180.878 C 253.836 176.252,231.871 176.262,225.750 180.896 C 223.325 182.731,222.000 182.615,222.000 180.568 C 222.000 178.826,217.946 177.517,212.992 177.657 C 206.758 177.835,201.877 175.463,197.146 169.957 C 193.386 165.581,188.488 162.000,186.262 162.000 C 181.231 162.000,184.014 140.162,189.269 138.410 C 191.614 137.629,191.685 136.660,189.498 135.308 C 187.313 133.958,187.278 131.957,189.387 128.921 C 191.709 125.577,192.828 125.414,193.978 128.250 C 194.815 130.313,197.750 131.959,200.500 131.909 C 205.011 131.826,204.987 131.518,200.250 128.760 C 192.555 124.278,193.800 116.823,204.391 103.975 C 214.824 91.317,231.513 79.843,248.381 73.729 C 262.996 68.432,292.610 68.084,306.846 73.042 M190.500 156.000 C 191.520 157.650,192.949 159.000,193.677 159.000 C 194.405 159.000,195.000 157.650,195.000 156.000 C 195.000 154.350,193.570 153.000,191.823 153.000 C 190.076 153.000,189.480 154.350,190.500 156.000 M337.779 162.750 C 341.974 170.123,348.985 176.998,352.215 176.905 C 354.022 176.852,353.391 175.165,350.814 173.155 C 348.237 171.145,345.242 167.138,344.158 164.250 C 343.075 161.363,340.716 159.000,338.917 159.000 C 337.118 159.000,336.606 160.688,337.779 162.750 M195.000 174.367 C 195.000 175.815,192.975 177.000,190.500 177.000 C 187.913 177.000,186.000 174.293,186.000 170.633 C 186.000 165.313,186.740 164.880,190.500 168.000 C 192.975 170.054,195.000 172.919,195.000 174.367 M208.521 170.966 C 207.470 172.666,208.674 173.169,211.344 172.145 C 216.541 170.150,217.492 168.000,213.177 168.000 C 211.624 168.000,209.529 169.335,208.521 170.966 M224.250 172.987 C 226.313 173.819,229.688 173.819,231.750 172.987 C 233.813 172.155,232.125 171.474,228.000 171.474 C 223.875 171.474,222.188 172.155,224.250 172.987 M210.000 187.500 C 212.054 189.975,212.798 192.000,211.653 192.000 C 210.508 192.000,207.546 189.975,205.071 187.500 C 202.596 185.025,201.853 183.000,203.418 183.000 C 204.984 183.000,207.946 185.025,210.000 187.500 M364.500 225.000 C 365.520 226.650,366.949 228.000,367.677 228.000 C 368.405 228.000,369.000 226.650,369.000 225.000 C 369.000 223.350,367.570 222.000,365.823 222.000 C 364.076 222.000,363.480 223.350,364.500 225.000 M193.500 231.000 C 192.480 232.650,193.076 234.000,194.823 234.000 C 196.570 234.000,198.000 232.650,198.000 231.000 C 198.000 229.350,197.405 228.000,196.677 228.000 C 195.949 228.000,194.520 229.350,193.500 231.000 M199.821 235.745 C 197.207 242.558,197.571 246.000,200.906 246.000 C 202.504 246.000,202.945 243.741,201.885 240.979 C 200.425 237.175,201.175 236.425,204.979 237.885 C 208.269 239.147,210.000 238.293,210.000 235.406 C 210.000 229.503,202.115 229.766,199.821 235.745 M207.000 249.000 C 207.000 250.650,208.270 252.000,209.823 252.000 C 211.376 252.000,213.480 250.650,214.500 249.000 C 215.520 247.350,214.249 246.000,211.677 246.000 C 209.105 246.000,207.000 247.350,207.000 249.000 M483.038 252.087 C 488.523 255.555,492.000 255.769,492.000 252.638 C 492.000 251.340,488.980 250.049,485.288 249.771 C 480.013 249.374,479.531 249.870,483.038 252.087 M380.200 258.372 C 382.235 260.423,384.656 261.344,385.579 260.421 C 386.503 259.497,384.838 257.819,381.879 256.693 C 377.604 255.065,377.259 255.409,380.200 258.372 M507.000 276.000 C 507.000 277.650,508.350 279.000,510.000 279.000 C 511.650 279.000,513.000 277.650,513.000 276.000 C 513.000 274.350,511.650 273.000,510.000 273.000 C 508.350 273.000,507.000 274.350,507.000 276.000 M517.499 276.001 C 516.644 277.385,517.982 280.554,520.472 283.044 C 522.963 285.534,525.000 289.693,525.000 292.286 C 525.000 294.879,526.350 297.000,528.000 297.000 C 529.650 297.000,531.000 295.650,531.000 294.000 C 531.000 292.350,532.350 291.000,534.000 291.000 C 535.650 291.000,537.021 293.363,537.046 296.250 C 537.080 300.153,537.725 300.502,539.559 297.610 C 540.916 295.471,547.611 293.498,554.436 293.226 C 566.580 292.742,572.163 287.926,568.135 281.409 C 566.953 279.497,565.305 279.878,563.717 282.430 C 561.606 285.821,560.114 285.837,554.778 282.529 C 550.186 279.682,549.013 279.593,550.634 282.216 C 553.328 286.576,540.329 283.973,527.277 277.540 C 522.754 275.310,518.354 274.618,517.499 276.001 M555.000 276.000 C 555.000 277.650,556.350 279.000,558.000 279.000 C 559.650 279.000,561.000 277.650,561.000 276.000 C 561.000 274.350,559.650 273.000,558.000 273.000 C 556.350 273.000,555.000 274.350,555.000 276.000 M498.000 279.000 C 498.000 280.650,499.430 282.000,501.177 282.000 C 502.924 282.000,503.520 280.650,502.500 279.000 C 501.480 277.350,500.051 276.000,499.323 276.000 C 498.595 276.000,498.000 277.350,498.000 279.000 M515.438 296.049 C 517.603 296.916,520.191 296.809,521.188 295.813 C 522.184 294.816,520.413 294.107,517.250 294.237 C 513.755 294.381,513.044 295.092,515.438 296.049 M383.064 320.846 C 385.818 324.062,389.245 325.967,390.681 325.079 C 394.128 322.949,387.409 315.000,382.162 315.000 C 379.000 315.000,379.207 316.341,383.064 320.846 M616.500 321.000 C 615.480 322.650,616.830 324.000,619.500 324.000 C 622.170 324.000,623.520 322.650,622.500 321.000 C 621.480 319.350,620.130 318.000,619.500 318.000 C 618.870 318.000,617.520 319.350,616.500 321.000 M500.000 323.000 C 498.900 324.100,498.000 326.395,498.000 328.100 C 498.000 329.980,499.397 329.803,501.550 327.650 C 503.503 325.698,504.403 323.403,503.550 322.550 C 502.698 321.698,501.100 321.900,500.000 323.000 M312.000 327.397 C 319.268 330.320,319.321 330.545,313.719 334.676 C 310.539 337.020,308.819 339.819,309.897 340.897 C 310.974 341.974,313.781 341.256,316.136 339.302 C 319.460 336.543,320.725 336.616,321.798 339.625 C 322.601 341.879,324.292 342.387,325.839 340.839 C 327.387 339.292,326.931 337.618,324.750 336.839 C 322.688 336.103,321.000 333.732,321.000 331.571 C 321.000 327.588,314.405 323.843,308.005 324.190 C 306.077 324.295,307.875 325.738,312.000 327.397 M373.500 327.000 C 372.480 328.650,373.751 330.000,376.323 330.000 C 378.895 330.000,381.000 331.350,381.000 333.000 C 381.000 336.757,374.877 335.641,369.821 330.964 C 364.726 326.250,365.002 324.000,370.677 324.000 C 373.249 324.000,374.520 325.350,373.500 327.000 M427.500 327.000 C 426.480 328.650,426.996 330.000,428.646 330.000 C 430.296 330.000,432.480 328.650,433.500 327.000 C 434.520 325.350,434.004 324.000,432.354 324.000 C 430.704 324.000,428.520 325.350,427.500 327.000 M270.000 329.646 C 270.000 331.296,271.350 333.480,273.000 334.500 C 274.650 335.520,276.000 335.004,276.000 333.354 C 276.000 331.704,274.650 329.520,273.000 328.500 C 271.350 327.480,270.000 327.996,270.000 329.646 M507.000 330.000 C 507.000 331.650,508.350 333.000,510.000 333.000 C 511.650 333.000,513.000 331.650,513.000 330.000 C 513.000 328.350,511.650 327.000,510.000 327.000 C 508.350 327.000,507.000 328.350,507.000 330.000 M576.000 328.179 C 576.000 328.828,578.095 330.162,580.656 331.145 C 583.326 332.169,584.530 331.666,583.479 329.966 C 581.717 327.115,576.000 325.749,576.000 328.179 M175.835 334.708 C 174.289 338.738,173.086 338.976,169.465 335.971 C 165.836 332.959,165.000 333.143,165.000 336.956 C 165.000 342.871,169.947 346.131,172.545 341.927 C 173.634 340.165,177.383 339.669,180.979 340.811 C 186.944 342.704,187.109 342.419,183.075 337.183 C 180.668 334.057,178.483 331.104,178.220 330.621 C 177.956 330.137,176.883 331.976,175.835 334.708 M353.564 337.722 C 349.458 341.828,348.548 341.775,344.766 337.218 C 340.969 332.643,341.219 332.348,347.274 334.269 C 351.762 335.694,354.000 335.172,354.000 332.702 C 354.000 330.666,354.932 329.932,356.071 331.071 C 357.211 332.211,356.082 335.203,353.564 337.722 M404.789 342.750 C 404.905 343.988,403.650 345.000,402.000 345.000 C 400.350 345.000,399.095 341.288,399.211 336.750 C 399.398 329.439,399.715 329.183,402.000 334.500 C 403.418 337.800,404.673 341.513,404.789 342.750 M302.000 335.000 C 300.900 336.100,300.000 338.395,300.000 340.100 C 300.000 341.980,301.397 341.803,303.550 339.650 C 305.503 337.698,306.403 335.403,305.550 334.550 C 304.698 333.698,303.100 333.900,302.000 335.000 M375.743 339.734 C 379.459 338.795,383.175 337.092,384.000 335.951 C 384.825 334.809,387.946 336.234,390.936 339.116 C 396.134 344.127,395.676 344.338,380.477 343.929 C 367.057 343.567,364.442 342.566,363.681 337.500 C 362.891 332.242,363.163 332.115,365.882 336.471 C 367.926 339.744,371.294 340.859,375.743 339.734 M618.000 336.000 C 612.184 339.759,609.000 339.759,609.000 336.000 C 609.000 334.350,612.038 333.021,615.750 333.046 C 621.208 333.083,621.639 333.648,618.000 336.000 M245.229 342.712 C 245.605 347.712,245.061 348.335,243.096 345.155 C 240.910 341.619,239.646 341.560,235.729 344.810 C 229.602 349.895,229.591 346.837,235.714 340.714 C 242.156 334.273,244.632 334.793,245.229 342.712 M429.000 340.500 C 432.059 344.186,431.854 345.000,427.867 345.000 C 425.190 345.000,423.000 342.975,423.000 340.500 C 423.000 338.025,423.510 336.000,424.133 336.000 C 424.756 336.000,426.946 338.025,429.000 340.500 M443.313 341.440 C 444.044 343.632,442.672 344.302,439.751 343.181 C 437.138 342.178,435.000 340.040,435.000 338.429 C 435.000 334.486,441.818 336.955,443.313 341.440 M606.000 340.821 C 606.000 341.469,602.288 341.979,597.750 341.954 C 591.746 341.921,590.651 341.180,593.728 339.232 C 597.548 336.813,606.000 337.908,606.000 340.821 M211.500 342.000 C 212.520 343.650,211.249 345.000,208.677 345.000 C 206.105 345.000,204.000 343.650,204.000 342.000 C 204.000 340.350,205.270 339.000,206.823 339.000 C 208.376 339.000,210.480 340.350,211.500 342.000 M339.000 342.000 C 339.000 343.650,337.570 345.000,335.823 345.000 C 334.076 345.000,333.480 343.650,334.500 342.000 C 335.520 340.350,336.949 339.000,337.677 339.000 C 338.405 339.000,339.000 340.350,339.000 342.000 M417.000 342.000 C 417.000 343.650,415.650 345.000,414.000 345.000 C 412.350 345.000,411.000 343.650,411.000 342.000 C 411.000 340.350,412.350 339.000,414.000 339.000 C 415.650 339.000,417.000 340.350,417.000 342.000 M467.188 340.813 C 466.191 341.809,463.603 341.916,461.438 341.049 C 459.044 340.092,459.755 339.381,463.250 339.237 C 466.413 339.107,468.184 339.816,467.188 340.813 M222.000 345.000 C 222.000 346.650,221.405 348.000,220.677 348.000 C 219.949 348.000,218.520 346.650,217.500 345.000 C 216.480 343.350,217.076 342.000,218.823 342.000 C 220.570 342.000,222.000 343.350,222.000 345.000 M583.946 365.278 C 580.588 370.712,573.000 405.305,573.000 415.183 C 573.000 435.005,592.546 445.210,604.728 431.748 C 613.146 422.446,611.459 405.077,599.932 382.366 C 590.562 363.905,587.089 360.193,583.946 365.278 M113.888 375.209 C 107.568 387.019,99.000 414.870,99.000 423.606 C 99.000 432.832,110.526 447.000,118.031 447.000 C 120.398 447.000,125.402 444.517,129.150 441.482 C 138.105 434.231,137.990 415.317,128.840 390.222 C 121.073 368.920,118.589 366.426,113.888 375.209 M221.099 380.377 C 218.596 386.635,214.923 400.008,212.938 410.097 C 209.705 426.534,209.907 429.416,214.885 437.843 C 221.697 449.376,231.523 452.313,241.474 445.793 C 250.158 440.103,253.396 429.872,250.830 416.230 C 248.449 403.566,232.072 369.000,228.453 369.000 C 226.912 369.000,223.603 374.120,221.099 380.377 M468.135 388.771 C 456.506 426.419,460.804 447.000,480.295 447.000 C 491.014 447.000,498.000 437.244,498.000 422.275 C 498.000 408.445,483.172 369.000,477.973 369.000 C 475.920 369.000,471.493 377.897,468.135 388.771 M588.000 381.000 C 588.000 384.300,586.776 387.000,585.281 387.000 C 583.785 387.000,583.268 384.300,584.131 381.000 C 584.994 377.700,586.217 375.000,586.850 375.000 C 587.482 375.000,588.000 377.700,588.000 381.000 M319.479 381.750 C 318.746 383.813,308.518 410.475,296.751 441.000 C 284.983 471.525,275.163 499.200,274.927 502.500 C 274.520 508.218,276.542 508.528,318.000 509.103 C 341.925 509.434,361.313 510.784,361.085 512.103 C 360.857 513.421,352.935 539.878,343.481 570.896 C 318.147 654.016,320.980 652.652,391.104 547.965 C 420.475 504.118,443.637 466.839,442.575 465.122 C 441.419 463.252,426.786 462.000,406.073 462.000 L 371.500 462.000 377.783 453.750 C 397.951 427.270,423.000 389.815,423.000 386.138 C 423.000 380.790,399.157 378.000,353.466 378.000 C 330.053 378.000,320.435 379.061,319.479 381.750 M472.896 410.961 C 470.734 423.795,468.165 431.693,466.846 429.561 C 464.478 425.728,466.162 413.814,471.513 396.549 C 476.402 380.780,476.975 386.754,472.896 410.961 M113.959 403.624 C 111.958 409.688,111.068 419.259,111.982 424.892 C 112.964 430.941,112.489 434.420,110.822 433.390 C 107.052 431.060,107.223 407.435,111.084 397.279 C 115.662 385.237,118.188 390.810,113.959 403.624 M342.000 393.000 C 342.000 394.650,340.570 396.000,338.823 396.000 C 337.076 396.000,336.480 394.650,337.500 393.000 C 338.520 391.350,339.949 390.000,340.677 390.000 C 341.405 390.000,342.000 391.350,342.000 393.000 M374.042 393.908 C 375.937 395.079,378.278 394.341,379.244 392.269 C 380.611 389.335,381.413 389.406,382.863 392.589 C 384.023 395.136,385.441 395.523,386.621 393.614 C 388.834 390.033,405.000 392.440,405.000 396.350 C 405.000 397.807,401.963 399.021,398.250 399.046 C 392.738 399.083,392.325 399.645,396.000 402.107 C 399.854 404.689,399.531 405.935,393.750 410.792 C 390.038 413.910,387.000 418.077,387.000 420.052 C 387.000 422.064,384.954 422.857,382.344 421.855 C 379.451 420.745,378.449 421.300,379.698 423.320 C 381.903 426.889,375.430 441.000,371.587 441.000 C 370.268 441.000,369.923 438.638,370.821 435.750 C 372.323 430.917,372.180 430.926,369.014 435.863 C 367.123 438.813,366.153 442.863,366.860 444.863 C 367.566 446.863,365.857 451.875,363.060 456.000 C 355.997 466.420,353.598 474.000,357.363 474.000 C 359.110 474.000,363.188 477.038,366.428 480.750 L 372.317 487.500 370.321 480.000 C 368.691 473.873,369.046 473.186,372.263 476.250 C 376.960 480.724,382.133 481.260,379.500 477.000 C 377.406 473.612,381.881 472.881,385.087 476.087 C 388.329 479.329,396.000 479.785,396.000 476.735 C 396.000 475.231,397.350 474.000,399.000 474.000 C 400.650 474.000,402.041 476.363,402.091 479.250 C 402.178 484.250,402.328 484.250,405.240 479.250 C 406.922 476.363,409.851 474.000,411.749 474.000 C 414.267 474.000,414.227 474.973,411.600 477.600 C 407.247 481.953,406.799 487.096,411.000 484.500 C 418.071 480.130,413.224 497.922,405.000 506.528 C 400.050 511.707,396.000 517.101,396.000 518.514 C 396.000 522.685,383.601 535.572,380.450 534.676 C 378.857 534.222,378.489 535.364,379.631 537.212 C 382.518 541.882,375.072 554.839,370.508 553.088 C 366.413 551.516,361.984 559.930,364.643 564.232 C 365.558 565.712,363.537 569.894,360.153 573.527 C 356.769 577.159,354.000 578.606,354.000 576.743 C 354.000 574.879,355.372 572.506,357.049 571.470 C 358.726 570.433,359.249 568.211,358.211 566.532 C 357.173 564.853,358.342 558.534,360.808 552.489 C 366.793 537.822,375.000 509.196,375.000 502.986 C 375.000 498.640,370.764 498.000,342.000 498.000 C 317.726 498.000,308.937 497.008,308.763 494.250 C 308.574 491.250,308.224 491.250,307.013 494.250 C 304.924 499.427,298.010 498.960,295.915 493.500 C 294.702 490.340,296.170 488.986,300.844 488.954 C 304.505 488.929,309.525 487.599,312.000 486.000 C 315.846 483.515,315.737 483.085,311.250 483.046 C 308.363 483.021,306.000 481.650,306.000 480.000 C 306.000 478.350,307.899 477.000,310.219 477.000 C 312.972 477.000,313.889 474.899,312.858 470.955 C 311.579 466.065,312.348 465.297,316.888 466.933 C 319.975 468.046,321.499 467.853,320.276 466.504 C 319.053 465.155,319.556 462.240,321.393 460.026 C 323.851 457.065,323.844 456.000,321.367 456.000 C 319.515 456.000,318.000 457.350,318.000 459.000 C 318.000 460.650,316.692 462.000,315.094 462.000 C 310.154 462.000,315.221 453.334,321.286 451.409 C 326.260 449.831,326.450 449.021,322.723 445.295 C 320.361 442.933,316.902 441.000,315.037 441.000 C 313.172 441.000,312.483 439.646,313.505 437.992 C 314.731 436.009,317.240 435.987,320.867 437.929 C 324.821 440.045,327.344 439.700,329.831 436.704 C 331.967 434.130,332.185 431.851,330.402 430.748 C 328.813 429.766,326.829 430.659,325.993 432.731 C 324.841 435.588,324.416 435.525,324.237 432.469 C 324.107 430.252,326.776 427.712,330.170 426.825 C 333.748 425.889,335.693 423.527,334.801 421.202 C 333.954 418.996,334.501 416.426,336.016 415.490 C 337.684 414.459,337.662 410.871,335.960 406.394 C 334.163 401.668,334.204 399.000,336.074 399.000 C 337.683 399.000,339.000 401.025,339.000 403.500 C 339.000 405.975,340.350 408.000,342.000 408.000 C 343.650 408.000,344.840 406.988,344.645 405.750 C 344.449 404.513,344.470 401.475,344.691 399.000 C 345.047 395.000,345.449 395.000,348.306 399.000 C 350.918 402.656,351.259 402.297,350.128 397.081 C 348.889 391.372,349.943 390.724,359.665 391.220 C 365.677 391.527,372.147 392.737,374.042 393.908 M582.626 409.014 C 581.426 419.298,588.698 430.777,594.242 427.351 C 595.759 426.413,597.000 427.076,597.000 428.823 C 597.000 433.142,587.050 432.850,582.600 428.400 C 577.417 423.217,578.074 399.000,583.398 399.000 C 583.616 399.000,583.269 403.506,582.626 409.014 M223.194 417.174 C 221.360 430.998,221.751 432.497,227.590 434.024 C 234.860 435.925,236.300 441.000,229.569 441.000 C 227.132 441.000,223.000 437.737,220.387 433.748 C 216.476 427.780,216.219 424.328,218.933 414.248 C 223.468 397.405,225.620 398.883,223.194 417.174 M332.188 409.813 C 331.191 410.809,328.603 410.916,326.438 410.049 C 324.044 409.092,324.755 408.381,328.250 408.237 C 331.413 408.107,333.184 408.816,332.188 409.813 M330.000 420.000 C 330.000 423.759,326.816 423.759,321.000 420.000 C 317.361 417.648,317.792 417.083,323.250 417.046 C 326.963 417.021,330.000 418.350,330.000 420.000 M167.100 446.250 C 148.736 487.285,144.884 506.135,151.859 520.832 C 161.097 540.301,187.568 539.233,198.445 518.951 C 205.034 506.666,205.397 497.586,200.012 479.727 C 194.644 461.918,179.710 429.000,177.000 429.000 C 175.801 429.000,171.346 436.763,167.100 446.250 M528.256 458.069 C 524.633 469.106,520.920 486.319,520.006 496.319 C 518.573 511.982,519.250 515.643,524.889 522.750 C 529.416 528.454,534.206 531.000,540.415 531.000 C 560.993 531.000,569.609 516.845,564.247 491.844 C 560.272 473.309,543.286 438.000,538.345 438.000 C 536.420 438.000,531.880 447.031,528.256 458.069 M169.494 474.019 C 161.425 497.741,160.217 510.062,165.069 519.130 C 167.513 523.696,167.245 524.522,163.753 523.182 C 153.560 519.270,155.649 490.723,168.206 462.335 C 177.141 442.136,177.923 449.235,169.494 474.019 M532.307 483.750 C 529.288 497.320,530.194 512.914,534.289 517.848 C 538.509 522.933,533.608 523.408,528.600 518.400 C 524.101 513.901,523.943 495.928,528.293 483.448 C 532.592 471.117,535.076 471.305,532.307 483.750 M405.000 495.000 C 402.621 496.471,401.349 498.349,402.174 499.174 C 402.999 499.999,405.621 499.471,408.000 498.000 C 410.379 496.529,411.651 494.651,410.826 493.826 C 410.001 493.001,407.379 493.529,405.000 495.000 M185.188 520.813 C 184.191 521.809,181.603 521.916,179.438 521.049 C 177.044 520.092,177.755 519.381,181.250 519.237 C 184.413 519.107,186.184 519.816,185.188 520.813 M371.000 542.000 C 369.900 543.100,369.000 545.395,369.000 547.100 C 369.000 548.980,370.397 548.803,372.550 546.650 C 374.503 544.698,375.403 542.403,374.550 541.550 C 373.698 540.698,372.100 540.900,371.000 542.000 " stroke="none" fill="black" fill-rule="evenodd"/></svg>